<?xml version="1.0" encoding="UTF-8" standalone="no"?>
<!-- Created with Inkscape (http://www.inkscape.org/) -->

<svg
   xmlns:dc="http://purl.org/dc/elements/1.1/"
   xmlns:cc="http://creativecommons.org/ns#"
   xmlns:rdf="http://www.w3.org/1999/02/22-rdf-syntax-ns#"
   xmlns:svg="http://www.w3.org/2000/svg"
   xmlns="http://www.w3.org/2000/svg"
   xmlns:xlink="http://www.w3.org/1999/xlink"
   xmlns:sodipodi="http://sodipodi.sourceforge.net/DTD/sodipodi-0.dtd"
   xmlns:inkscape="http://www.inkscape.org/namespaces/inkscape"
   width="212"
   height="212"
   viewBox="0 0 212 211.99998"
   id="svg2"
   version="1.1"
   inkscape:version="0.92.3 (2405546, 2018-03-11)"
   sodipodi:docname="1545571884.svg"
   inkscape:export-filename="./fix.png"
   inkscape:export-xdpi="96"
   inkscape:export-ydpi="96"
   style="shape-rendering:crispEdges">
  <defs
     id="defs4">
    <linearGradient
       inkscape:collect="always"
       id="linearGradient917">
      <stop
         style="stop-color:#6ecf3f;stop-opacity:1"
         offset="0"
         id="stop913" />
      <stop
         style="stop-color:#67ca2d;stop-opacity:1"
         offset="1"
         id="stop915" />
    </linearGradient>
    <linearGradient
       inkscape:collect="always"
       xlink:href="#linearGradient917"
       id="linearGradient919"
       x1="945.8985"
       y1="845.7215"
       x2="1056.4454"
       y2="767.5965"
       gradientUnits="userSpaceOnUse"
       gradientTransform="matrix(3.2864421,-0.30902613,0.30902613,3.2864421,-2117.9087,-2119.8433)" />
  </defs>
  <sodipodi:namedview
     id="base"
     pagecolor="#ffffff"
     bordercolor="#666666"
     borderopacity="1.0"
     inkscape:pageopacity="0.0"
     inkscape:pageshadow="2"
     inkscape:zoom="0.63999997"
     inkscape:cx="129.72613"
     inkscape:cy="-114.25124"
     inkscape:document-units="px"
     inkscape:current-layer="layer3"
     showgrid="false"
     units="px"
     inkscape:window-width="1368"
     inkscape:window-height="849"
     inkscape:window-x="-8"
     inkscape:window-y="-8"
     inkscape:window-maximized="1"
     inkscape:snap-bbox="true"
     inkscape:object-nodes="true"
     inkscape:snap-smooth-nodes="true"
     inkscape:snap-object-midpoints="true"
     inkscape:snap-global="false"
     fit-margin-top="0"
     fit-margin-left="0"
     fit-margin-right="0"
     fit-margin-bottom="0" />
  <metadata
     id="metadata7">
    <rdf:RDF>
      <cc:Work
         rdf:about="">
        <dc:format>image/svg+xml</dc:format>
        <dc:type
           rdf:resource="http://purl.org/dc/dcmitype/StillImage" />
        <dc:title></dc:title>
      </cc:Work>
    </rdf:RDF>
  </metadata>
  <g
     inkscape:label="Check"
     inkscape:groupmode="layer"
     id="layer1"
     transform="translate(-1080.8677,13.092118)">
    <path
       style="opacity:1;fill:url(#linearGradient919);fill-opacity:1;stroke:#5a8b31;stroke-width:19.80563354;stroke-linecap:round;stroke-linejoin:round;stroke-miterlimit:4;stroke-dasharray:none;stroke-dashoffset:220.00001526;stroke-opacity:1;paint-order:stroke fill markers"
       d="m 1113.3311,86.66337 c 16.1218,12.92434 31.974,26.02994 45.2344,40.87889 34.0715,-39.18421 72.8139,-74.971594 116.9166,-100.86896 l 7.1999,47.347036 c -46.9936,16.206834 -88.8039,44.480534 -121.9235,92.985354 -18.5561,-21.14932 -34.6084,-43.00133 -69.9887,-59.42913 z"
       id="path911"
       inkscape:connector-curvature="0"
       sodipodi:nodetypes="ccccccc" />
  </g>
  <g
     inkscape:groupmode="layer"
     id="layer3"
     inkscape:label="Text"
     transform="translate(-64.062766,86.050674)"
     style="display:inline">
    <g
       aria-label="i18n"
       transform="translate(24,-132.375)"
       style="font-style:normal;font-variant:normal;font-weight:normal;font-stretch:normal;font-size:96px;line-height:1.25;font-family:'Bauhaus 93';-inkscape-font-specification:'Bauhaus 93, Normal';font-variant-ligatures:normal;font-variant-caps:normal;font-variant-numeric:normal;font-feature-settings:normal;text-align:start;letter-spacing:0px;word-spacing:0px;writing-mode:lr-tb;text-anchor:start;fill:#1a1a1a;fill-opacity:1;stroke:#ffffff;stroke-width:1.00157475;stroke-miterlimit:4;stroke-dasharray:none;stroke-opacity:1"
       id="flowRoot888">
      <path
         d="M 71.078125,89.147383 V 135.88176 H 53.546875 V 89.147383 Z m -8.71875,-20.859375 q 3.5625,0 6.140625,2.53125 2.625,2.484375 2.625,5.90625 0,3.65625 -2.484375,6 -2.4375,2.34375 -6.28125,2.34375 -3.84375,0 -6.328125,-2.34375 -2.4375,-2.34375 -2.4375,-6 0,-3.421875 2.578125,-5.90625 2.625,-2.53125 6.1875,-2.53125 z"
         style="font-style:normal;font-variant:normal;font-weight:normal;font-stretch:normal;font-size:96px;font-family:'Bauhaus 93';-inkscape-font-specification:'Bauhaus 93, Normal';font-variant-ligatures:normal;font-variant-caps:normal;font-variant-numeric:normal;font-feature-settings:normal;text-align:start;writing-mode:lr-tb;text-anchor:start;fill:#1a1a1a;fill-opacity:1;stroke:#ffffff;stroke-width:1.00157475;stroke-miterlimit:4;stroke-dasharray:none;stroke-opacity:1"
         id="path974"
         inkscape:connector-curvature="0" />
      <path
         d="M 112.75,71.897383 V 135.88176 H 94.609375 V 71.897383 Z"
         style="font-style:normal;font-variant:normal;font-weight:normal;font-stretch:normal;font-size:96px;font-family:'Bauhaus 93';-inkscape-font-specification:'Bauhaus 93, Normal';font-variant-ligatures:normal;font-variant-caps:normal;font-variant-numeric:normal;font-feature-settings:normal;text-align:start;writing-mode:lr-tb;text-anchor:start;fill:#1a1a1a;fill-opacity:1;stroke:#ffffff;stroke-width:1.00157475;stroke-miterlimit:4;stroke-dasharray:none;stroke-opacity:1"
         id="path976"
         inkscape:connector-curvature="0" />
      <path
         d="m 173.92187,99.178633 q 3.98438,4.124997 5.48438,7.593747 1.5,3.46875 1.5,8.4375 0,9.51563 -6.51563,15.89063 -6.46875,6.375 -16.17187,6.375 -9.75,0 -16.26563,-6.375 -6.46875,-6.375 -6.46875,-15.89063 0,-4.82812 1.54688,-8.4375 1.59375,-3.60937 5.4375,-7.593747 Q 139,94.584883 139,88.959883 q 0,-8.109375 5.39062,-13.359375 5.39063,-5.296875 13.73438,-5.296875 8.4375,0 13.82812,5.25 5.4375,5.25 5.4375,13.453125 0,5.53125 -3.46875,10.171875 z m -15.9375,-15.140625 q -2.10937,0 -3.65625,1.546875 -1.5,1.546875 -1.5,3.609375 0,2.390625 1.5,3.9375 1.5,1.546875 3.84375,1.546875 2.10938,0 3.60938,-1.59375 1.54687,-1.59375 1.54687,-3.75 0,-2.25 -1.54687,-3.75 -1.54688,-1.546875 -3.79688,-1.546875 z m 0.14063,23.859372 q -3.1875,0 -5.48438,2.25 -2.25,2.20313 -2.25,5.34375 0,3.42188 2.20313,5.71875 2.20312,2.25 5.53125,2.25 3.32812,0 5.53125,-2.25 2.20312,-2.29687 2.20312,-5.71875 0,-3.09375 -2.29687,-5.34375 -2.29688,-2.25 -5.4375,-2.25 z"
         style="font-style:normal;font-variant:normal;font-weight:normal;font-stretch:normal;font-size:96px;font-family:'Bauhaus 93';-inkscape-font-specification:'Bauhaus 93, Normal';font-variant-ligatures:normal;font-variant-caps:normal;font-variant-numeric:normal;font-feature-settings:normal;text-align:start;writing-mode:lr-tb;text-anchor:start;fill:#1a1a1a;fill-opacity:1;stroke:#ffffff;stroke-width:1.00157475;stroke-miterlimit:4;stroke-dasharray:none;stroke-opacity:1"
         id="path978"
         inkscape:connector-curvature="0" />
      <path
         d="M 232.28125,135.88176 H 214.75 v -26.39063 q 0,-4.03125 -3.32813,-4.03125 -3.28125,0 -3.28125,4.03125 v 26.39063 h -17.53125 v -26.0625 q 0,-9.14063 6.04688,-15.375002 6.04687,-6.28125 14.8125,-6.28125 10.03125,0 16.07812,7.265625 4.73438,5.671877 4.73438,15.796877 z"
         style="font-style:normal;font-variant:normal;font-weight:normal;font-stretch:normal;font-size:96px;font-family:'Bauhaus 93';-inkscape-font-specification:'Bauhaus 93, Normal';font-variant-ligatures:normal;font-variant-caps:normal;font-variant-numeric:normal;font-feature-settings:normal;text-align:start;writing-mode:lr-tb;text-anchor:start;fill:#1a1a1a;fill-opacity:1;stroke:#ffffff;stroke-width:1.00157475;stroke-miterlimit:4;stroke-dasharray:none;stroke-opacity:1"
         id="path980"
         inkscape:connector-curvature="0" />
    </g>
  </g>
</svg>
