<?xml version="1.0" encoding="UTF-8" standalone="no"?>
<svg
   id="Layer_1"
   version="1.1"
   xml:space="preserve"
   viewBox="0 0 100 100"
   enable-background="new 0 0 91.5 97.6"
   y="0px"
   x="0px"
   sodipodi:docname="code.svg"
   inkscape:version="1.3 (0e150ed6c4, 2023-07-21)"
   width="100"
   height="100"
   xmlns:inkscape="http://www.inkscape.org/namespaces/inkscape"
   xmlns:sodipodi="http://sodipodi.sourceforge.net/DTD/sodipodi-0.dtd"
   xmlns="http://www.w3.org/2000/svg"
   xmlns:svg="http://www.w3.org/2000/svg"
   xmlns:rdf="http://www.w3.org/1999/02/22-rdf-syntax-ns#"
   xmlns:cc="http://creativecommons.org/ns#"
   xmlns:dc="http://purl.org/dc/elements/1.1/"><defs
   id="defs4" /><sodipodi:namedview
   id="namedview4"
   pagecolor="#ffffff"
   bordercolor="#000000"
   borderopacity="0.25"
   inkscape:showpageshadow="2"
   inkscape:pageopacity="0.0"
   inkscape:pagecheckerboard="0"
   inkscape:deskcolor="#d1d1d1"
   inkscape:zoom="6.0092214"
   inkscape:cx="7.0724637"
   inkscape:cy="48.009547"
   inkscape:window-width="2560"
   inkscape:window-height="1369"
   inkscape:window-x="-8"
   inkscape:window-y="-8"
   inkscape:window-maximized="1"
   inkscape:current-layer="Layer_1" />&#10;	<path
   d="M 90.6,12.3 V 12.2 C 89.1,10.2 87.3,8.5 85.2,6.9 V 7 c -1.7,1.3 -3.4,2.7 -5,4.1 -0.7,-0.4 -1.3,-0.7 -1.9,-1 C 77.5,9.7 76.7,9.3 75.8,9.1 75.5,9 75.2,8.9 74.9,8.9 74.7,6.7 74.5,4.5 74.2,2.3 73.2,2.1 72.2,2.1 71.1,2 h -1.6 c -1,0.1 -1.9,0.1 -2.8,0.3 -0.3,2.1 -0.5,4.3 -0.6,6.5 -0.4,0 -0.7,0.1 -1.1,0.2 -0.1,0 -0.2,0 -0.3,0.1 -0.8,0.2 -1.6,0.6 -2.4,1 -0.7,0.3 -1.3,0.6 -1.9,1 C 58.7,9.7 57.1,8.4 55.4,7 L 55.3,6.9 c -0.4,0.3 -0.8,0.6 -1.1,0.9 -0.7,0.5 -1.3,1.1 -1.8,1.7 -0.9,0.8 -1.6,1.8 -2.4,2.8 h 0.1 c 1.3,1.7 2.7,3.3 4.1,5 -0.4,0.6 -0.8,1.3 -1.1,1.9 -0.4,0.8 -0.7,1.7 -0.9,2.5 -0.2,0.4 -0.3,0.8 -0.3,1.1 -2.2,0.2 -4.4,0.4 -6.5,0.7 -0.2,1 -0.3,2 -0.3,3.1 0,1.5 0.1,3 0.4,4.4 2.1,0.2 4.2,0.4 6.4,0.6 0,0.4 0.1,0.8 0.3,1.1 0.2,0.9 0.5,1.7 0.9,2.6 0.4,0.7 0.7,1.4 1.2,2 -1.4,1.7 -2.8,3.3 -4.1,5 1.5,2.1 3.3,3.9 5.4,5.4 v -0.1 c 1.6,-1.3 3.3,-2.7 4.9,-4.1 h 0.1 c 0.5,0.3 1.1,0.6 1.6,0.9 0.9,0.4 1.9,0.8 2.8,1 0.4,0.1 0.7,0.2 1,0.3 0.2,2.1 0.4,4.3 0.7,6.5 0.9,0.1 1.8,0.2 2.8,0.2 H 71 c 1.1,0 2.2,-0.1 3.3,-0.3 0.2,-2.1 0.4,-4.3 0.6,-6.5 0.3,-0.1 0.6,-0.2 0.9,-0.3 0.9,-0.2 1.7,-0.5 2.5,-0.9 0.7,-0.3 1.4,-0.7 2.1,-1.2 0,0.1 0,0.1 0.1,0.1 1.6,1.4 3.3,2.8 5,4.1 0.3,-0.2 0.6,-0.4 1,-0.7 0.6,-0.5 1.2,-1.1 1.7,-1.7 0.9,-0.9 1.8,-1.9 2.6,-3 -1.4,-1.7 -2.8,-3.4 -4.2,-5 v -0.1 c 0.3,-0.5 0.6,-1.1 0.9,-1.7 0.3,-0.8 0.7,-1.6 0.9,-2.4 0,-0.1 0,-0.2 0.1,-0.2 0,-0.4 0.1,-0.7 0.2,-0.9 2.2,-0.2 4.4,-0.4 6.5,-0.6 0.2,-1 0.2,-2 0.3,-3 v -1.7 c -0.1,-1 -0.1,-2 -0.3,-3 -2.1,-0.2 -4.3,-0.4 -6.5,-0.6 -0.1,-0.3 -0.2,-0.6 -0.2,-0.9 -0.3,-0.9 -0.6,-1.8 -1,-2.7 -0.3,-0.6 -0.7,-1.3 -1,-1.9 1.3,-1.6 2.7,-3.3 4.1,-5 z m -26.7,8.3 c 1.8,-1.9 4,-2.8 6.5,-2.7 2.6,-0.1 4.7,0.8 6.6,2.7 1.8,1.8 2.7,4 2.7,6.5 0,2.6 -0.9,4.7 -2.7,6.6 -1.9,1.8 -4,2.7 -6.6,2.7 -2.5,0 -4.7,-0.9 -6.5,-2.7 -1.8,-1.9 -2.7,-4 -2.7,-6.6 0,-2.5 0.9,-4.7 2.7,-6.5 z"
   id="path1"
   style="fill:#999999" />&#10;	<path
   d="m 70.5,19.2 c -2.2,0 -4,0.8 -5.6,2.3 -1.5,1.6 -2.3,3.4 -2.3,5.6 0,2.2 0.8,4 2.3,5.6 1.6,1.6 3.4,2.4 5.6,2.4 2.2,0 4,-0.8 5.6,-2.4 1.6,-1.6 2.3,-3.4 2.3,-5.6 0,-2.2 -0.7,-4 -2.3,-5.6 -1.6,-1.5 -3.4,-2.3 -5.6,-2.3 z m -4.2,3.7 c 1.2,-1.1 2.6,-1.7 4.2,-1.7 1.6,0 3,0.6 4.2,1.7 1.2,1.2 1.7,2.5 1.7,4.2 0,1.7 -0.5,3.1 -1.7,4.2 -1.2,1.2 -2.6,1.8 -4.2,1.8 -1.6,0 -3,-0.6 -4.2,-1.8 -1.1,-1.1 -1.7,-2.5 -1.7,-4.2 0,-1.6 0.6,-3 1.7,-4.2 z"
   id="path2"
   style="fill:#4d4d4d" />&#10;	<path
   d="m 44.8,35.6 c -0.4,-0.2 -0.7,-0.3 -1,-0.3 -1.2,-0.3 -2.4,-0.5 -3.6,-0.7 -1.1,2.7 -2,5.3 -2.9,7.9 h -1.8 c -1.2,0.1 -2.3,0.2 -3.4,0.4 -0.9,0.1 -1.8,0.4 -2.7,0.7 -1.6,-2.3 -3.3,-4.6 -4.9,-6.8 l -0.1,-0.1 c -0.6,0.2 -1.2,0.4 -1.7,0.7 -1,0.4 -1.9,0.9 -2.8,1.5 -1.4,0.7 -2.7,1.6 -3.9,2.7 v 0.1 c 1.2,2.5 2.3,5 3.5,7.5 -0.7,0.7 -1.3,1.3 -1.9,2.1 -0.8,0.8 -1.5,1.8 -2.1,2.8 -0.3,0.4 -0.5,0.8 -0.7,1.3 -2.8,-0.5 -5.6,-1 -8.4,-1.4 -0.5,1.2 -1,2.4 -1.4,3.7 -0.4,2 -0.8,3.9 -1,5.8 l 7.8,3 v 1.4 c 0,1.1 0.1,2.3 0.4,3.5 0.1,1 0.4,2 0.7,3 -2.3,1.6 -4.5,3.2 -6.8,4.9 1.2,3 2.9,5.8 4.9,8.4 h 0.1 c 2.5,-1.2 5,-2.3 7.6,-3.5 0.6,0.6 1.2,1.1 1.8,1.7 0.9,0.8 2,1.5 3.2,2.2 0.3,0.2 0.7,0.4 1.1,0.7 -0.5,2.7 -0.9,5.5 -1.3,8.3 1.1,0.5 2.2,0.9 3.4,1.2 0.3,0.1 0.9,0.3 1.9,0.5 1.4,0.4 2.8,0.6 4.1,0.8 1.1,-2.7 2.1,-5.3 3,-8 h 1.3 c 1.2,0 2.3,-0.1 3.4,-0.3 1,-0.2 2,-0.5 3,-0.8 0,0 0,0.1 0.1,0.1 1.6,2.3 3.3,4.6 4.9,6.9 0.5,-0.3 1,-0.5 1.4,-0.7 1,-0.4 1.9,-0.9 2.8,-1.4 1.5,-0.9 2.9,-1.9 4.2,-3 -1.1,-2.6 -2.3,-5.1 -3.5,-7.7 0.6,-0.6 1.1,-1.2 1.7,-1.8 0.7,-0.9 1.4,-1.9 2,-2.8 0,-0.1 0.1,-0.2 0.1,-0.3 0.2,-0.3 0.4,-0.7 0.6,-1 2.8,0.5 5.6,0.9 8.4,1.4 0.5,-1.2 0.9,-2.4 1.3,-3.7 0.1,-0.3 0.2,-0.6 0.3,-1 0.1,-0.3 0.1,-0.6 0.3,-1 0.2,-1.3 0.5,-2.6 0.6,-3.8 -2.6,-1.1 -5.3,-2 -7.9,-3 v -1.2 c 0,-1.2 -0.1,-2.5 -0.4,-3.7 -0.1,-0.9 -0.4,-1.8 -0.6,-2.7 2.3,-1.6 4.6,-3.3 6.8,-5 h 0.1 c -1.2,-3 -2.8,-5.8 -5,-8.4 -2.6,1.1 -5.1,2.3 -7.6,3.5 -0.7,-0.7 -1.4,-1.4 -2.1,-2 -0.9,-0.7 -1.8,-1.4 -2.8,-1.9 -0.3,-0.3 -0.7,-0.5 -1,-0.7 0.4,-2.8 0.9,-5.6 1.3,-8.4 -1.2,-0.5 -2.5,-1 -3.8,-1.4 -0.3,-0.1 -0.7,-0.2 -1,-0.2 z M 26.2,73 c -1.7,-2.9 -2.1,-5.9 -1.2,-9.1 0.8,-3.2 2.7,-5.6 5.6,-7.3 2.8,-1.6 5.9,-2 9,-1.2 3.2,0.9 5.7,2.7 7.3,5.6 1.7,2.9 2.1,5.9 1.2,9.1 -0.8,3.2 -2.7,5.6 -5.5,7.2 -3,1.7 -6,2.1 -9.1,1.2 -3.2,-0.8 -5.7,-2.7 -7.3,-5.5 z"
   id="path3"
   style="fill:#999999" />&#10;	<path
   d="m 26.8,64.4 c -0.8,2.7 -0.5,5.3 0.9,7.7 h 0.1 c 1.4,2.5 3.5,4 6.2,4.8 2.7,0.7 5.3,0.4 7.8,-1 2.5,-1.5 4,-3.5 4.8,-6.2 v -0.1 c 0.7,-2.7 0.3,-5.3 -1.1,-7.7 -1.4,-2.5 -3.5,-4.1 -6.2,-4.8 -2.7,-0.8 -5.4,-0.4 -7.8,1 -2.5,1.4 -4,3.5 -4.7,6.3 z m 6,-4 c 1.9,-1.1 3.8,-1.4 5.8,-0.8 2,0.5 3.6,1.7 4.7,3.6 1.1,1.8 1.3,3.8 0.8,5.8 -0.6,2 -1.8,3.6 -3.6,4.6 v 0.1 c -1.9,1 -3.8,1.3 -5.8,0.7 C 32.6,73.9 31.1,72.7 30,70.8 29,69 28.7,67.1 29.2,65 29.8,63 31,61.5 32.8,60.4 Z"
   id="path4"
   style="fill:#4d4d4d" />&#10;<metadata
   id="metadata4"><rdf:RDF><cc:Work><dc:format>image/svg+xml</dc:format><dc:type
         rdf:resource="http://purl.org/dc/dcmitype/StillImage" /><cc:license
         rdf:resource="http://creativecommons.org/publicdomain/zero/1.0/" /><dc:publisher><cc:Agent
           rdf:about="http://openclipart.org/"><dc:title>Openclipart</dc:title></cc:Agent></dc:publisher><dc:title>Black cogwheels</dc:title><dc:date>2013-09-14T15:51:34</dc:date><dc:description>Black cogwheels</dc:description><dc:source>https://openclipart.org/detail/183435/black-cogwheels-by-liftarn-183435</dc:source><dc:creator><cc:Agent><dc:title>liftarn</dc:title></cc:Agent></dc:creator><dc:subject><rdf:Bag><rdf:li>black</rdf:li><rdf:li>cogwheel</rdf:li><rdf:li>cogwheels</rdf:li><rdf:li>gear</rdf:li><rdf:li>gears</rdf:li></rdf:Bag></dc:subject></cc:Work><cc:License
       rdf:about="http://creativecommons.org/publicdomain/zero/1.0/"><cc:permits
         rdf:resource="http://creativecommons.org/ns#Reproduction" /><cc:permits
         rdf:resource="http://creativecommons.org/ns#Distribution" /><cc:permits
         rdf:resource="http://creativecommons.org/ns#DerivativeWorks" /></cc:License></rdf:RDF></metadata></svg>
