<?xml version="1.0" encoding="UTF-8" standalone="no"?>
<!-- Created with Inkscape (http://www.inkscape.org/) -->

<svg
   id="svg3491"
   sodipodi:docname="convert-text.svg"
   viewBox="0 0 45.999999 46"
   version="1.1"
   inkscape:version="1.1.2 (0a00cf5339, 2022-02-04)"
   width="46"
   height="46"
   xmlns:inkscape="http://www.inkscape.org/namespaces/inkscape"
   xmlns:sodipodi="http://sodipodi.sourceforge.net/DTD/sodipodi-0.dtd"
   xmlns="http://www.w3.org/2000/svg"
   xmlns:svg="http://www.w3.org/2000/svg"
   xmlns:rdf="http://www.w3.org/1999/02/22-rdf-syntax-ns#"
   xmlns:cc="http://creativecommons.org/ns#"
   xmlns:dc="http://purl.org/dc/elements/1.1/">
  <defs
     id="defs3493">
    <rect
       x="22.912882"
       y="16.377592"
       width="22.676664"
       height="8.5037498"
       id="rect2" />
  </defs>
  <sodipodi:namedview
     id="base"
     fit-margin-left="0"
     inkscape:showpageshadow="false"
     inkscape:zoom="12.70028"
     borderopacity="1.0"
     inkscape:current-layer="layer1"
     inkscape:cx="12.283194"
     inkscape:cy="26.849802"
     inkscape:window-maximized="1"
     showgrid="false"
     fit-margin-right="0"
     inkscape:document-units="px"
     bordercolor="#666666"
     inkscape:window-x="0"
     inkscape:window-y="0"
     fit-margin-bottom="0"
     inkscape:window-width="2560"
     inkscape:pageopacity="0.0"
     inkscape:pageshadow="2"
     pagecolor="#ffffff"
     inkscape:window-height="1368"
     showborder="false"
     fit-margin-top="0"
     inkscape:pagecheckerboard="0"
     inkscape:deskcolor="#d1d1d1" />
  <g
     id="layer1"
     inkscape:label="Layer 1"
     inkscape:groupmode="layer"
     transform="translate(-482.25208,-269.58167)">
    <text
       xml:space="preserve"
       transform="translate(434.26,261.72)"
       id="text2"
       style="font-size:5.33333px;font-family:'Courier New';-inkscape-font-specification:'Courier New';letter-spacing:1.05px;white-space:pre;shape-inside:url(#rect2);display:inline;fill:#00af00;stroke:#007db1;stroke-width:1.88976;paint-order:stroke markers fill" />
    <g
       aria-label="я╝Щ"
       id="text22906"
       style="font-size:40px;line-height:1.25">
      <path
         d="m 492.51898,302.18552 v -2.96875 l 3.28125,0.46875 q 8.59375,0 8.90625,-11.5625 h -0.15625 q -1.875,3.4375 -6.09375,3.4375 -8.125,0 -8.125,-8.75 0,-4.53125 2.34375,-7.03125 2.5,-2.5 6.40625,-2.5 4.0625,0 6.71875,3.28125 2.65625,3.125 2.65625,9.21875 0,16.71875 -12.5,16.71875 z m 6.5625,-13.4375 q 2.34375,0 4.0625,-1.5625 1.71875,-1.5625 1.71875,-3.75 0,-3.125 -1.71875,-5.15625 -1.71875,-2.03125 -4.0625,-2.03125 -5.3125,0 -5.3125,6.5625 0,5.9375 5.3125,5.9375 z"
         style="fill:#358bff"
         id="path828" />
    </g>
    <g
       aria-label="реп"
       id="text3572"
       style="font-size:40px;line-height:1.25">
      <path
         d="m 515.79919,297.05963 q 1.71875,0 2.92969,-1.44531 1.25,-1.48438 1.25,-3.51563 0,-1.91406 -1.25,-3.28125 -1.21094,-1.36718 -2.92969,-1.36718 -1.91406,0 -3.32031,1.36718 -1.36719,1.36719 -1.36719,3.28125 0,2.03125 1.36719,3.51563 1.40625,1.44531 3.32031,1.44531 z m 4.41407,19.49219 -0.78125,-2.34375 q 1.40625,0 2.38281,-0.54688 1.01562,-0.54687 1.01562,-1.25 0,-0.42968 -0.46875,-1.05468 -0.42968,-0.66407 -1.36718,-1.83594 l -8.04688,-8.82813 q -2.14844,-2.14843 -3.28125,-4.49218 -1.13281,-2.38282 -1.13281,-4.60938 0,-2.92969 2.10937,-4.96094 2.14844,-2.07031 5.15625,-2.07031 2.92969,0 4.96094,2.22656 2.07031,2.1875 2.07031,5.3125 0,3.04688 -1.75781,5.19532 -1.71875,2.10937 -4.21875,2.10937 -0.19531,0 -0.58594,-0.0391 -0.39062,-0.0781 -1.25,-0.23438 l 8.86719,9.88282 q 0.78125,0.89843 1.17188,1.79687 0.39062,0.85938 0.39062,1.60156 0,1.5625 -1.52344,2.73438 -1.52343,1.21094 -3.71093,1.40625 z"
         style="fill:#008000"
         id="path849" />
    </g>
  </g>
  <metadata
     id="metadata1">
    <rdf:RDF>
      <cc:Work>
        <dc:format>image/svg+xml</dc:format>
        <dc:type
           rdf:resource="http://purl.org/dc/dcmitype/StillImage" />
        <cc:license
           rdf:resource="http://creativecommons.org/publicdomain/zero/1.0/" />
        <dc:publisher>
          <cc:Agent
             rdf:about="http://openclipart.org/">
            <dc:title>Openclipart</dc:title>
          </cc:Agent>
        </dc:publisher>
        <dc:date>2012-04-29T23:00:39</dc:date>
        <dc:description />
        <dc:source>https://openclipart.org/detail/169752/file-icon-csv-by-jabon</dc:source>
        <dc:creator>
          <cc:Agent>
            <dc:title>jabon</dc:title>
          </cc:Agent>
        </dc:creator>
        <dc:subject>
          <rdf:Bag>
            <rdf:li>csv</rdf:li>
            <rdf:li>file</rdf:li>
            <rdf:li>icon</rdf:li>
          </rdf:Bag>
        </dc:subject>
      </cc:Work>
      <cc:License
         rdf:about="http://creativecommons.org/licenses/publicdomain/">
        <cc:permits
           rdf:resource="http://creativecommons.org/ns#Reproduction" />
        <cc:permits
           rdf:resource="http://creativecommons.org/ns#Distribution" />
        <cc:permits
           rdf:resource="http://creativecommons.org/ns#DerivativeWorks" />
      </cc:License>
    </rdf:RDF>
  </metadata>
</svg>
