<?xml version="1.0" encoding="UTF-8" standalone="no"?>
<!--part of the rodentia icon theme by sixsixfive released under CC0 (https://creativecommons.org/publicdomain/zero/1.0/) on openclipart-->

<svg
   viewBox="0 0 48 48"
   version="1.1"
   id="svg28"
   sodipodi:docname="string-info.svg"
   inkscape:version="1.1.2 (0a00cf5339, 2022-02-04)"
   xmlns:inkscape="http://www.inkscape.org/namespaces/inkscape"
   xmlns:sodipodi="http://sodipodi.sourceforge.net/DTD/sodipodi-0.dtd"
   xmlns:xlink="http://www.w3.org/1999/xlink"
   xmlns="http://www.w3.org/2000/svg"
   xmlns:svg="http://www.w3.org/2000/svg">
  <sodipodi:namedview
     id="namedview30"
     pagecolor="#ffffff"
     bordercolor="#666666"
     borderopacity="1.0"
     inkscape:pageshadow="2"
     inkscape:pageopacity="0.0"
     inkscape:pagecheckerboard="0"
     showgrid="false"
     inkscape:zoom="18.145833"
     inkscape:cx="23.972445"
     inkscape:cy="23.972445"
     inkscape:window-width="2560"
     inkscape:window-height="1368"
     inkscape:window-x="0"
     inkscape:window-y="0"
     inkscape:window-maximized="1"
     inkscape:current-layer="svg28" />
  <defs
     id="0">
    <linearGradient
       id="3">
      <stop
         id="I"
         stop-color="#d3d7cf" />
      <stop
         id="J"
         offset="1"
         stop-color="#eeeeec" />
    </linearGradient>
    <linearGradient
       id="4">
      <stop
         id="K"
         stop-color="#fff" />
      <stop
         id="L"
         offset="1"
         stop-color="#fff"
         stop-opacity="0" />
    </linearGradient>
    <linearGradient
       id="5">
      <stop
         id="M"
         stop-color="#fff"
         stop-opacity="0.8" />
      <stop
         id="N"
         offset="1"
         stop-color="#fff"
         stop-opacity="0" />
    </linearGradient>
    <linearGradient
       y1="9.6"
       x2="0"
       y2="111.96"
       id="7"
       xlink:href="#5"
       gradientUnits="userSpaceOnUse"
       gradientTransform="matrix(0.3737254,0,0,0.3737254,0.08157306,0.07104089)" />
    <radialGradient
       cx="21.676"
       cy="21.87"
       r="4.269"
       id="8"
       xlink:href="#3"
       gradientUnits="userSpaceOnUse"
       gradientTransform="matrix(3.6068202,-3.1809653,4.1918746,4.7530661,-145.05439,2.4876455)" />
    <linearGradient
       x1="9.1"
       y1="-13.1"
       x2="21.846"
       y2="25.379"
       id="9"
       xlink:href="#4"
       gradientUnits="userSpaceOnUse"
       gradientTransform="translate(-1.4412689e-7,-0.01053351)" />
  </defs>
  <g
     id="g942"
     transform="translate(0,2)">
    <path
       d="m 5.4305181,2.4735749 c -1.5114203,0 -2.721188,1.2214465 -2.721188,2.7328669 V 33.808115 c 0,1.51142 1.2097677,2.732865 2.721188,2.732865 H 17.004327 l 1.039424,1.051102 6.131433,6.236543 5.956249,-6.236543 1.004387,-1.051102 h 11.421983 c 1.51142,0 2.732867,-1.221445 2.732867,-2.732865 V 5.2064418 c 0,-1.5114204 -1.221447,-2.7328669 -2.732867,-2.7328669 z"
       id="B"
       fill="#183768" />
    <path
       d="m 5.4305178,3.796616 c -0.7698149,0 -1.4014702,0.6389904 -1.4014702,1.4131491 V 33.811437 c 0,0.774159 0.6316557,1.413149 1.4014702,1.413149 H 17.004326 c 0.35249,-5.6e-4 0.686496,0.134734 0.934314,0.385405 l 0.96935,0.96935 0.02336,0.03504 a 0.45398704,0.45398704 0 0 0 0.04672,0.04671 0.45398704,0.45398704 0 0 0 0,0.01168 l 4.846751,4.928504 a 0.45398704,0.45398704 0 0 0 0.654019,0 l 4.694926,-4.916825 1.004387,-1.051103 c 0.249098,-0.261412 0.596581,-0.409457 0.957671,-0.408762 h 11.421983 c 0.774758,0 1.413149,-0.638391 1.413149,-1.413149 V 5.2097651 c 0,-0.7747596 -0.638391,-1.4131491 -1.413149,-1.4131491 z"
       id="C"
       fill="#3465a4"
       style="stroke-width:0.373725" />
    <path
       d="m 5.4305178,4.1586625 c -0.6066404,0 -1.0394237,0.4358112 -1.0394237,1.0511026 V 33.811437 c 0,0.615293 0.4327826,1.051103 1.0394237,1.051103 H 17.004326 a 1.6795323,1.6795323 0 0 1 1.19125,0.502193 L 19.235,36.415836 a 1.6795323,1.6795323 0 0 1 0.01168,0 l 4.916825,4.998577 4.753319,-4.975219 1.004387,-1.051103 a 1.6795323,1.6795323 0 0 1 1.214608,-0.525551 h 11.421983 c 0.606642,-1e-6 1.051102,-0.444462 1.051102,-1.051103 V 5.2097651 c 0,-0.6066404 -0.444464,-1.0511026 -1.051102,-1.0511026 z"
       id="D"
       opacity="0.8"
       fill="none"
       stroke="url(#7)"
       stroke-width="1.00009"
       style="stroke:url(#7)" />
    <g
       id="E"
       fill="#eeeeec"
       transform="translate(-1.4412689e-7,-0.01053351)">
      <path
         d="m 23.96875,5.96875 c -0.496616,3.3e-5 -1.04871,0.07895 -1.59375,0.3125 -0.530207,0.2272688 -0.950065,0.5467105 -1.28125,0.875 V 7.1875 c -0.362943,0.3505715 -0.669939,0.7715561 -0.875,1.25 -0.202701,0.4729954 -0.343755,1.0158577 -0.34375,1.59375 -3e-6,0.577909 0.127776,1.121099 0.34375,1.625 0.200175,0.46711 0.466065,0.934849 0.84375,1.3125 0.377659,0.377695 0.845372,0.643583 1.3125,0.84375 0.473035,0.20276 1.015805,0.343781 1.59375,0.34375 0.577945,3.1e-5 1.121072,-0.127754 1.625,-0.34375 0.478518,-0.205054 0.899411,-0.511989 1.25,-0.875 H 26.875 c 0.368383,-0.37364 0.646945,-0.822033 0.84375,-1.28125 0.215951,-0.50388 0.343741,-1.047109 0.34375,-1.625 C 28.062489,9.4533815 27.921428,8.9104759 27.71875,8.4375 27.516053,7.9645987 27.232419,7.5360562 26.875,7.1875 c -0.0051,-0.0053 -0.02614,0.00532 -0.03125,0 -0.309123,-0.3219093 -0.700499,-0.6707041 -1.25,-0.90625 -0.575924,-0.2467767 -1.128396,-0.3124673 -1.625,-0.3125 z m -4.28125,8.3125 a 1.4375427,1.4375427 0 0 0 -1.28125,1.4375 v 1.125 a 1.4375427,1.4375427 0 0 0 1.0625,1.375 L 20.0625,18.375 V 29.25 l -0.65625,0.15625 a 1.4375427,1.4375427 0 0 0 -1.125,1.40625 v 1.15625 a 1.4375427,1.4375427 0 0 0 1.4375,1.4375 h 8.5625 a 1.4375427,1.4375427 0 0 0 1.4375,-1.4375 V 30.8125 a 1.4375427,1.4375427 0 0 0 -1.125,-1.40625 L 27.9375,29.25 V 15.71875 A 1.4375427,1.4375427 0 0 0 26.5,14.28125 h -6.65625 a 1.4375427,1.4375427 0 0 0 -0.15625,0 z"
         id="O"
         fill="#204a87" />
      <path
         d="m 26.488693,30.402567 1.780108,0.414782 V 31.958 h -8.537603 v -1.140651 l 1.762825,-0.414782 V 17.267794 L 19.834894,16.853011 V 15.71236 h 6.653799 V 30.402567 M 21.321197,10.043669 c -2e-6,-0.3686735 0.06913,-0.714325 0.207391,-1.0369561 0.138259,-0.3225852 0.328367,-0.5991065 0.570326,-0.8295646 0.241953,-0.2419323 0.524235,-0.4320407 0.846847,-0.5703257 0.322604,-0.1382363 0.668256,-0.2073666 1.036956,-0.2073911 0.36869,2.45e-5 0.714342,0.069155 1.036956,0.2073911 0.322602,0.138285 0.599123,0.3283934 0.829564,0.5703257 0.24195,0.2304581 0.432058,0.5069794 0.570326,0.8295646 0.138253,0.3226311 0.207384,0.6682826 0.207391,1.0369561 -7e-6,0.368717 -0.06914,0.714368 -0.207391,1.036955 -0.138268,0.322629 -0.328376,0.604912 -0.570326,0.846848 -0.230441,0.241976 -0.506962,0.432084 -0.829564,0.570325 -0.322614,0.13828 -0.668266,0.207411 -1.036956,0.207391 -0.3687,2e-5 -0.714352,-0.06911 -1.036956,-0.207391 -0.322612,-0.138241 -0.604894,-0.328349 -0.846847,-0.570325 -0.241959,-0.241936 -0.432067,-0.524219 -0.570326,-0.846848 -0.138263,-0.322587 -0.207393,-0.668238 -0.207391,-1.036955"
         id="P"
         fill="url(#8)"
         style="fill:url(#8)" />
    </g>
    <path
       d="m 5.4374999,3.6457165 c -0.8392865,0 -1.5625,0.720435 -1.5625,1.5625 V 27.458216 C 16.9065,22.166225 30.561135,17.789331 44.125,14.489466 V 5.2082165 c 0,-0.8458536 -0.716647,-1.5625 -1.5625,-1.5625 z"
       id="F"
       opacity="0.6"
       fill="url(#9)"
       style="fill:url(#9)" />
  </g>
</svg>
