<?xml version="1.0" encoding="UTF-8" standalone="no"?>
<svg
   id="svg8"
   version="1.1"
   viewBox="0 0 320 320"
   height="320mm"
   width="320mm"
   sodipodi:docname="translations.svg"
   inkscape:version="1.3 (0e150ed6c4, 2023-07-21)"
   xmlns:inkscape="http://www.inkscape.org/namespaces/inkscape"
   xmlns:sodipodi="http://sodipodi.sourceforge.net/DTD/sodipodi-0.dtd"
   xmlns="http://www.w3.org/2000/svg"
   xmlns:svg="http://www.w3.org/2000/svg"
   xmlns:rdf="http://www.w3.org/1999/02/22-rdf-syntax-ns#"
   xmlns:cc="http://creativecommons.org/ns#"
   xmlns:dc="http://purl.org/dc/elements/1.1/">
  <sodipodi:namedview
     id="namedview1"
     pagecolor="#ffffff"
     bordercolor="#000000"
     borderopacity="0.25"
     inkscape:showpageshadow="2"
     inkscape:pageopacity="0.0"
     inkscape:pagecheckerboard="0"
     inkscape:deskcolor="#d1d1d1"
     inkscape:document-units="mm"
     inkscape:zoom="0.58332421"
     inkscape:cx="249.43247"
     inkscape:cy="299.14754"
     inkscape:window-width="2560"
     inkscape:window-height="1369"
     inkscape:window-x="-8"
     inkscape:window-y="-8"
     inkscape:window-maximized="1"
     inkscape:current-layer="svg8" />
  <defs
     id="defs2" />
  <metadata
     id="metadata5">
    <rdf:RDF>
      <cc:Work
         rdf:about="">
        <dc:format>image/svg+xml</dc:format>
        <dc:type
           rdf:resource="http://purl.org/dc/dcmitype/StillImage" />
      </cc:Work>
    </rdf:RDF>
  </metadata>
  <rect
     ry="49.596699"
     y="12.910933"
     x="12.760149"
     height="295.83994"
     width="295.68814"
     id="rect4507"
     style="fill:#ececec;fill-opacity:1;stroke:#363639;stroke-width:9.6452;stroke-linecap:round;stroke-linejoin:bevel;stroke-miterlimit:4;stroke-dasharray:none;stroke-dashoffset:1.21209;stroke-opacity:1" />
  <g
     id="g1"
     transform="matrix(1.2349273,0,0,1.2349273,-33.154611,-37.903027)">
    <path
       id="path4512"
       style="font-style:normal;font-variant:normal;font-weight:normal;font-stretch:normal;font-size:77.6748px;line-height:1.25;font-family:'Gill Sans Ultra Bold Condensed';-inkscape-font-specification:'Gill Sans Ultra Bold Condensed, ';letter-spacing:0px;word-spacing:0px;fill:#007db1;fill-opacity:1;stroke:none;stroke-width:2.13297"
       d="m 119.98881,153.5848 -2.44814,10.87473 H 98.24598 l 15.39426,-63.8263 h 27.17853 l 14.60588,63.8263 h -19.08722 l -2.48964,-10.87473 z m 3.40251,-14.97366 h 7.05397 l -3.4855,-15.60106 z" />
    <path
       id="path4509"
       style="font-style:normal;font-variant:normal;font-weight:normal;font-stretch:normal;font-size:84.7612px;line-height:1.25;font-family:'OCR A Extended';-inkscape-font-specification:'OCR A Extended';letter-spacing:0px;word-spacing:0px;fill:#007db1;fill-opacity:1;stroke:none;stroke-width:0.882929"
       d="m 209.21409,234.91085 q -18.36191,12.83615 -37.82554,17.6124 l -3.30514,-7.16436 q 19.46362,-4.47773 34.88763,-15.22429 -12.85334,-11.34357 -17.2602,-26.26934 h -17.62743 v -5.67179 h 35.25487 v -11.34359 h 8.07924 q 3.67238,0.59703 0.36724,2.38813 v 8.95546 h 35.62211 v 5.67179 h -17.2602 q -2.93791,14.03022 -15.42401,26.26934 12.85334,9.25398 34.15316,13.7317 l -3.30515,7.16438 q -18.72914,-3.8807 -36.35658,-16.11983 z m -0.36724,-9.5525 q 11.01715,-10.74654 13.58782,-21.49309 h -28.64459 q 2.20343,10.14952 15.05677,21.49309 z" />
    <path
       style="fill:none;stroke:#007db1;stroke-width:9;stroke-linecap:round;stroke-linejoin:bevel;stroke-miterlimit:4;stroke-dasharray:none;stroke-opacity:1"
       d="M 133.82852,242.38214 C 75.936656,241.05711 61.083103,216.02261 59.502398,160.97077"
       id="path4493" />
    <path
       style="fill:none;stroke:#007db1;stroke-width:9;stroke-linecap:round;stroke-linejoin:bevel;stroke-miterlimit:4;stroke-dasharray:none;stroke-opacity:1"
       d="m 123.34813,202.14731 10.48039,40.23482 -41.384679,24.05992"
       id="path4495" />
    <path
       id="path4501"
       d="m 174.61985,82.708693 c 57.86854,-2.110667 74.18065,21.998857 79.0235,76.860057"
       style="fill:none;stroke:#007db1;stroke-width:9;stroke-linecap:round;stroke-linejoin:bevel;stroke-miterlimit:4;stroke-dasharray:none;stroke-opacity:1" />
    <path
       id="path4503"
       d="M 187.46797,122.25114 174.61984,82.708694 214.50477,56.236754"
       style="fill:none;stroke:#007db1;stroke-width:9;stroke-linecap:round;stroke-linejoin:bevel;stroke-miterlimit:4;stroke-dasharray:none;stroke-opacity:1" />
  </g>
</svg>
