<?xml version="1.0" encoding="UTF-8" standalone="no"?>
<!-- Created with Inkscape (http://www.inkscape.org/) -->

<svg
   id="svg3491"
   sodipodi:docname="unicode-encoded.svg"
   viewBox="0 0 66.317 68.03"
   version="1.1"
   inkscape:version="1.3 (0e150ed6c4, 2023-07-21)"
   xmlns:inkscape="http://www.inkscape.org/namespaces/inkscape"
   xmlns:sodipodi="http://sodipodi.sourceforge.net/DTD/sodipodi-0.dtd"
   xmlns="http://www.w3.org/2000/svg"
   xmlns:svg="http://www.w3.org/2000/svg"
   xmlns:rdf="http://www.w3.org/1999/02/22-rdf-syntax-ns#"
   xmlns:cc="http://creativecommons.org/ns#"
   xmlns:dc="http://purl.org/dc/elements/1.1/">
  <defs
     id="defs3493">
    <rect
       x="1.8109837"
       y="18.897221"
       width="87.79334"
       height="15.826423"
       id="rect1" />
    <rect
       x="22.912881"
       y="16.377592"
       width="22.676665"
       height="8.5037495"
       id="rect2" />
  </defs>
  <sodipodi:namedview
     id="base"
     fit-margin-left="0"
     inkscape:showpageshadow="false"
     inkscape:zoom="12.70028"
     borderopacity="1.0"
     inkscape:current-layer="layer1"
     inkscape:cx="37.046427"
     inkscape:cy="33.975629"
     inkscape:window-maximized="1"
     showgrid="false"
     fit-margin-right="0"
     inkscape:document-units="px"
     bordercolor="#666666"
     inkscape:window-x="-8"
     inkscape:window-y="-8"
     fit-margin-bottom="0"
     inkscape:window-width="2560"
     inkscape:pageopacity="0.0"
     inkscape:pageshadow="2"
     pagecolor="#ffffff"
     inkscape:window-height="1369"
     showborder="false"
     fit-margin-top="0"
     inkscape:pagecheckerboard="0"
     inkscape:deskcolor="#d1d1d1" />
  <g
     id="layer1"
     inkscape:label="Layer 1"
     inkscape:groupmode="layer"
     transform="translate(-434.26 -261.72)">
    <path
       style="font-weight:bold;font-size:12px;font-family:Sans;-inkscape-font-specification:'Sans, Bold';letter-spacing:1.05px;white-space:pre;fill:#00afa4;stroke-width:1.88976;paint-order:stroke markers fill"
       d="m 3.5025469,21.246987 3.192,8.568 h -1.62 l -3.192,-8.568 z m 12.3660011,0 v 5.544 q 0,0.888 -0.396,1.608 -0.384,0.708 -1.176,1.128 -0.792,0.408 -1.98,0.408 -1.704,0 -2.5919997,-0.864 -0.888,-0.876 -0.888,-2.304 v -5.52 h 1.8119997 v 5.244 q 0,1.068 0.432,1.5 0.432,0.42 1.284,0.42 0.888,0 1.284,-0.468 0.408,-0.468 0.408,-1.464 v -5.232 z m 8.490007,4.284 q 0,1.38 -0.3,2.364 -0.288,0.984 -0.948,1.512 -0.66,0.528 -1.752,0.528 -1.548,0 -2.268,-1.164 -0.72,-1.164 -0.72,-3.24 0,-1.38 0.288,-2.364 0.288,-0.996 0.948,-1.524 0.66,-0.528 1.752,-0.528 1.536,0 2.268,1.164 0.732,1.164 0.732,3.252 z m -4.188,0 q 0,1.464 0.252,2.208 0.252,0.732 0.936,0.732 0.672,0 0.936,-0.732 0.264,-0.732 0.264,-2.208 0,-1.464 -0.264,-2.208 -0.264,-0.744 -0.936,-0.744 -0.684,0 -0.936,0.744 -0.252,0.744 -0.252,2.208 z m 12.102005,0 q 0,1.38 -0.3,2.364 -0.288,0.984 -0.948,1.512 -0.66,0.528 -1.752,0.528 -1.548,0 -2.268,-1.164 -0.72,-1.164 -0.72,-3.24 0,-1.38 0.288,-2.364 0.288,-0.996 0.948,-1.524 0.66,-0.528 1.752,-0.528 1.536,0 2.268,1.164 0.732,1.164 0.732,3.252 z m -4.188,0 q 0,1.464 0.252,2.208 0.252,0.732 0.936,0.732 0.672,0 0.936,-0.732 0.264,-0.732 0.264,-2.208 0,-1.464 -0.264,-2.208 -0.264,-0.744 -0.936,-0.744 -0.684,0 -0.936,0.744 -0.252,0.744 -0.252,2.208 z m 12.102007,0 q 0,1.38 -0.3,2.364 -0.288,0.984 -0.948,1.512 -0.66,0.528 -1.752,0.528 -1.548,0 -2.268,-1.164 -0.72,-1.164 -0.72,-3.24 0,-1.38 0.288,-2.364 0.288,-0.996 0.948,-1.524 0.66,-0.528 1.752,-0.528 1.536,0 2.268,1.164 0.732,1.164 0.732,3.252 z m -4.188,0 q 0,1.464 0.252,2.208 0.252,0.732 0.936,0.732 0.672,0 0.936,-0.732 0.264,-0.732 0.264,-2.208 0,-1.464 -0.264,-2.208 -0.264,-0.744 -0.936,-0.744 -0.684,0 -0.936,0.744 -0.252,0.744 -0.252,2.208 z m 12.102006,0 q 0,1.38 -0.3,2.364 -0.288,0.984 -0.948,1.512 -0.66,0.528 -1.752,0.528 -1.548,0 -2.268,-1.164 -0.72,-1.164 -0.72,-3.24 0,-1.38 0.288,-2.364 0.288,-0.996 0.948,-1.524 0.66,-0.528 1.752,-0.528 1.536,0 2.268,1.164 0.732,1.164 0.732,3.252 z m -4.188,0 q 0,1.464 0.252,2.208 0.252,0.732 0.936,0.732 0.672,0 0.936,-0.732 0.264,-0.732 0.264,-2.208 0,-1.464 -0.264,-2.208 -0.264,-0.744 -0.936,-0.744 -0.684,0 -0.936,0.744 -0.252,0.744 -0.252,2.208 z m 12.102005,0 q 0,1.38 -0.3,2.364 -0.288,0.984 -0.948,1.512 -0.66,0.528 -1.752,0.528 -1.548,0 -2.268,-1.164 -0.72,-1.164 -0.72,-3.24 0,-1.38 0.288,-2.364 0.288,-0.996 0.948,-1.524 0.66,-0.528 1.752,-0.528 1.536,0 2.268,1.164 0.732,1.164 0.732,3.252 z m -4.188,0 q 0,1.464 0.252,2.208 0.252,0.732 0.936,0.732 0.672,0 0.936,-0.732 0.264,-0.732 0.264,-2.208 0,-1.464 -0.264,-2.208 -0.264,-0.744 -0.936,-0.744 -0.684,0 -0.936,0.744 -0.252,0.744 -0.252,2.208 z m 10.638005,4.284 h -1.812 v -4.956 q 0,-0.3 0.012,-0.804 0.012,-0.516 0.036,-0.9 -0.06,0.072 -0.264,0.264 -0.192,0.18 -0.36,0.324 l -0.984,0.792 -0.876,-1.092 2.76,-2.196 h 1.488 z m 4.290009,0 3.216,-7.044 h -4.224 v -1.524 h 6.144 v 1.14 l -3.24,7.428 z m 12.594002,0 h -4.932 v -8.568 h 4.932 v 1.488 h -3.12 v 1.884 h 2.904 v 1.488 h -2.904 v 2.208 h 3.12 z"
       id="text1"
       transform="rotate(51.772121,-24.133808,600.49865)"
       aria-label="\U0000017E" />
    <text
       xml:space="preserve"
       transform="translate(434.26,261.72)"
       id="text2"
       style="font-size:5.33333px;font-family:'Courier New';-inkscape-font-specification:'Courier New';letter-spacing:1.05px;white-space:pre;shape-inside:url(#rect2);display:inline;fill:#00af00;stroke:#007db1;stroke-width:1.88976;paint-order:stroke markers fill" />
  </g>
  <metadata
     id="metadata1">
    <rdf:RDF>
      <cc:Work>
        <dc:format>image/svg+xml</dc:format>
        <dc:type
           rdf:resource="http://purl.org/dc/dcmitype/StillImage" />
        <cc:license
           rdf:resource="http://creativecommons.org/licenses/publicdomain/" />
        <dc:publisher>
          <cc:Agent
             rdf:about="http://openclipart.org/">
            <dc:title>Openclipart</dc:title>
          </cc:Agent>
        </dc:publisher>
        <dc:date>2012-04-29T23:00:39</dc:date>
        <dc:description />
        <dc:source>https://openclipart.org/detail/169752/file-icon-csv-by-jabon</dc:source>
        <dc:creator>
          <cc:Agent>
            <dc:title>jabon</dc:title>
          </cc:Agent>
        </dc:creator>
        <dc:subject>
          <rdf:Bag>
            <rdf:li>csv</rdf:li>
            <rdf:li>file</rdf:li>
            <rdf:li>icon</rdf:li>
          </rdf:Bag>
        </dc:subject>
      </cc:Work>
      <cc:License
         rdf:about="http://creativecommons.org/licenses/publicdomain/">
        <cc:permits
           rdf:resource="http://creativecommons.org/ns#Reproduction" />
        <cc:permits
           rdf:resource="http://creativecommons.org/ns#Distribution" />
        <cc:permits
           rdf:resource="http://creativecommons.org/ns#DerivativeWorks" />
      </cc:License>
    </rdf:RDF>
  </metadata>
</svg>
